<svg id="svg" version="1.1" width="400" height="100" viewBox="0 0 400 100" xmlns="http://www.w3.org/2000/svg" xmlns:xlink="http://www.w3.org/1999/xlink"><g id="svgg"><path id="path0" d="M141.456 28.875 C 140.885 29.309,140.867 29.948,140.844 51.134 L 140.820 72.335 141.236 72.751 C 141.740 73.256,144.967 73.388,145.593 72.930 C 145.909 72.699,145.919 72.267,146.000 54.490 C 146.079 37.297,146.100 36.276,146.379 36.101 C 146.633 35.943,146.960 36.210,148.712 38.007 C 152.120 41.502,163.951 53.741,169.152 59.151 C 175.845 66.113,175.501 65.983,175.499 61.553 C 175.498 58.161,175.504 58.176,173.195 55.758 C 168.587 50.930,157.811 39.792,154.482 36.417 C 152.494 34.400,150.128 31.971,149.225 31.018 C 147.090 28.765,146.888 28.675,143.990 28.670 C 142.435 28.668,141.645 28.732,141.456 28.875 M189.750 28.909 C 188.957 29.272,172.000 46.563,172.000 47.009 C 172.000 47.598,174.821 50.332,175.436 50.338 C 175.958 50.344,180.374 45.986,186.619 39.304 C 189.646 36.065,189.938 35.814,190.125 36.294 C 190.187 36.453,190.240 44.671,190.244 54.556 L 190.250 72.529 190.643 72.848 C 191.304 73.383,194.531 73.318,195.091 72.758 L 195.500 72.348 195.500 50.947 C 195.500 25.547,195.916 28.664,192.530 28.673 C 190.962 28.678,190.094 28.751,189.750 28.909 M245.942 32.805 C 245.703 33.069,245.667 33.604,245.667 36.855 C 245.667 41.403,245.951 41.000,242.749 41.000 C 239.474 41.000,239.575 40.930,239.610 43.188 C 239.646 45.405,239.544 45.333,242.626 45.333 C 243.959 45.333,245.165 45.410,245.344 45.506 C 245.657 45.673,245.667 45.959,245.667 55.396 C 245.667 67.382,245.804 68.168,248.338 70.667 C 250.529 72.827,251.977 73.160,259.208 73.164 C 265.772 73.167,265.333 73.320,265.333 71.026 C 265.333 68.793,265.717 68.936,259.441 68.823 C 252.248 68.694,251.076 68.146,250.508 64.647 C 250.250 63.056,250.273 45.794,250.533 45.533 C 250.682 45.384,252.442 45.333,257.424 45.333 C 265.355 45.333,264.667 45.542,264.667 43.138 C 264.667 40.807,265.313 41.000,257.518 41.000 C 253.328 41.000,250.862 40.938,250.656 40.827 C 250.352 40.665,250.333 40.442,250.333 36.948 C 250.333 32.242,250.468 32.500,248.016 32.500 C 246.486 32.500,246.177 32.545,245.942 32.805 M279.962 41.028 C 276.305 41.389,273.821 43.579,272.715 47.417 C 272.416 48.453,272.155 69.991,272.419 71.804 C 272.593 72.998,272.893 73.167,274.841 73.167 C 276.396 73.167,276.544 73.138,276.924 72.758 L 277.333 72.348 277.333 60.954 C 277.333 44.807,276.850 45.535,287.667 45.381 C 292.551 45.312,293.461 45.261,293.708 45.041 C 294.139 44.658,294.137 41.676,293.706 41.285 C 293.386 40.996,282.375 40.789,279.962 41.028 M303.526 40.994 C 300.681 41.129,301.000 39.092,301.000 57.109 L 301.000 72.348 301.409 72.758 C 301.973 73.322,306.019 73.391,306.690 72.848 L 307.083 72.529 307.083 57.185 L 307.083 41.841 306.667 41.440 C 306.135 40.929,305.823 40.885,303.526 40.994 M206.740 41.237 C 206.338 41.531,206.250 44.650,206.633 45.033 C 206.804 45.204,208.859 45.268,216.300 45.336 C 227.776 45.440,227.965 45.481,229.322 48.196 C 229.985 49.523,230.120 53.668,229.511 53.994 C 229.300 54.107,225.923 54.168,219.719 54.169 C 209.319 54.172,209.103 54.189,207.138 55.181 C 204.014 56.758,202.606 59.370,202.607 63.583 C 202.609 68.727,204.665 71.846,208.757 72.911 C 210.245 73.299,233.576 73.295,234.130 72.907 L 234.500 72.648 234.500 61.234 C 234.500 48.639,234.481 48.360,233.460 46.184 C 232.410 43.943,229.863 41.919,227.257 41.254 C 225.825 40.888,207.238 40.873,206.740 41.237 M313.163 41.254 C 312.819 41.669,312.998 41.878,318.602 47.610 C 326.188 55.370,327.583 56.842,327.583 57.088 C 327.583 57.288,322.937 62.200,315.842 69.500 C 312.194 73.254,312.187 73.167,316.131 73.167 C 319.458 73.167,319.078 73.387,323.098 69.124 C 325.015 67.092,327.596 64.356,328.833 63.043 L 331.083 60.656 332.250 61.871 C 332.892 62.539,335.472 65.246,337.984 67.886 C 343.412 73.588,342.762 73.167,346.125 73.167 C 349.871 73.167,349.928 73.053,347.458 70.509 C 346.519 69.541,344.400 67.361,342.750 65.663 C 336.797 59.540,334.667 57.276,334.667 57.072 C 334.667 56.958,336.448 55.033,338.625 52.795 C 346.489 44.709,349.167 41.872,349.167 41.625 C 349.167 41.049,348.755 40.977,345.744 41.031 L 342.798 41.083 341.191 42.799 C 340.307 43.742,337.746 46.491,335.500 48.907 C 333.254 51.322,331.330 53.339,331.225 53.388 C 331.120 53.437,328.795 51.074,326.058 48.137 C 323.322 45.201,320.704 42.393,320.240 41.899 L 319.397 41.000 316.385 41.000 C 313.891 41.000,313.338 41.044,313.163 41.254 M229.833 63.563 C 229.833 67.541,229.790 68.495,229.602 68.652 C 229.431 68.793,226.871 68.832,219.893 68.797 L 210.417 68.750 209.552 68.294 C 206.865 66.878,206.485 61.340,208.954 59.604 C 210.228 58.709,210.465 58.690,220.542 58.678 L 229.833 58.667 229.833 63.563 " stroke="none" fill="#ffffff" fill-rule="evenodd"></path><path id="path1" d="M142.882 28.624 C 143.504 28.656,144.479 28.656,145.049 28.623 C 145.618 28.591,145.108 28.564,143.917 28.565 C 142.725 28.565,142.259 28.592,142.882 28.624 M191.458 28.623 C 192.031 28.656,192.969 28.656,193.542 28.623 C 194.115 28.591,193.646 28.564,192.500 28.564 C 191.354 28.564,190.885 28.591,191.458 28.623 M187.414 30.875 L 185.750 32.583 187.458 30.920 C 189.045 29.375,189.242 29.167,189.122 29.167 C 189.097 29.167,188.328 29.935,187.414 30.875 M140.872 30.667 C 140.872 30.988,140.906 31.119,140.948 30.958 C 140.990 30.798,140.990 30.535,140.948 30.375 C 140.906 30.215,140.872 30.346,140.872 30.667 M247.125 32.456 C 247.606 32.490,248.394 32.490,248.875 32.456 C 249.356 32.423,248.963 32.395,248.000 32.395 C 247.037 32.395,246.644 32.423,247.125 32.456 M152.750 34.667 C 153.939 35.858,154.949 36.833,154.995 36.833 C 155.041 36.833,154.106 35.858,152.917 34.667 C 151.728 33.475,150.717 32.500,150.671 32.500 C 150.626 32.500,151.561 33.475,152.750 34.667 M245.498 37.000 L 245.417 40.750 242.833 40.840 L 240.250 40.930 242.771 40.965 C 245.958 41.009,245.684 41.400,245.627 36.896 L 245.580 33.250 245.498 37.000 M250.367 36.948 C 250.348 38.983,250.390 40.682,250.458 40.725 C 250.527 40.767,250.564 39.665,250.540 38.276 C 250.462 33.673,250.401 33.204,250.367 36.948 M177.916 40.542 L 171.917 46.583 177.958 40.584 C 183.573 35.009,184.075 34.500,183.957 34.500 C 183.934 34.500,181.215 37.219,177.916 40.542 M146.189 36.224 C 145.975 36.481,145.828 72.690,146.042 72.558 C 146.110 72.515,146.167 64.362,146.167 54.440 C 146.167 40.631,146.214 36.353,146.367 36.200 C 146.477 36.090,146.523 36.000,146.470 36.000 C 146.417 36.000,146.291 36.101,146.189 36.224 M188.744 37.042 L 187.917 37.917 188.792 37.090 C 189.273 36.635,189.667 36.241,189.667 36.215 C 189.667 36.090,189.512 36.229,188.744 37.042 M190.233 38.833 C 190.233 40.162,190.259 40.706,190.290 40.042 C 190.322 39.377,190.322 38.290,190.290 37.625 C 190.259 36.960,190.233 37.504,190.233 38.833 M140.875 37.917 C 140.877 38.283,140.911 38.414,140.951 38.206 C 140.991 37.999,140.990 37.699,140.948 37.540 C 140.906 37.380,140.874 37.550,140.875 37.917 M149.250 38.667 C 149.979 39.400,150.613 40.000,150.659 40.000 C 150.705 40.000,150.146 39.400,149.417 38.667 C 148.688 37.933,148.054 37.333,148.008 37.333 C 147.962 37.333,148.521 37.933,149.250 38.667 M186.333 39.583 C 185.928 39.996,185.635 40.333,185.681 40.333 C 185.726 40.333,186.095 39.996,186.500 39.583 C 186.905 39.171,187.199 38.833,187.153 38.833 C 187.107 38.833,186.738 39.171,186.333 39.583 M159.750 41.833 C 160.571 42.658,161.281 43.333,161.326 43.333 C 161.372 43.333,160.738 42.658,159.917 41.833 C 159.095 41.008,158.386 40.333,158.340 40.333 C 158.294 40.333,158.929 41.008,159.750 41.833 M152.167 41.750 C 152.757 42.346,153.278 42.833,153.324 42.833 C 153.370 42.833,152.924 42.346,152.333 41.750 C 151.743 41.154,151.222 40.667,151.176 40.667 C 151.130 40.667,151.576 41.154,152.167 41.750 M211.708 40.958 C 214.252 40.984,218.415 40.984,220.958 40.958 C 223.502 40.932,221.421 40.911,216.333 40.911 C 211.246 40.911,209.165 40.932,211.708 40.958 M254.031 40.958 C 255.835 40.985,258.835 40.985,260.697 40.958 C 262.560 40.931,261.083 40.909,257.417 40.909 C 253.750 40.909,252.226 40.931,254.031 40.958 M280.208 40.948 C 280.369 40.990,280.631 40.990,280.792 40.948 C 280.952 40.906,280.821 40.872,280.500 40.872 C 280.179 40.872,280.048 40.906,280.208 40.948 M284.542 40.958 C 286.169 40.985,288.831 40.985,290.458 40.958 C 292.085 40.931,290.754 40.908,287.500 40.908 C 284.246 40.908,282.915 40.931,284.542 40.958 M302.792 40.956 C 303.273 40.990,304.060 40.990,304.542 40.956 C 305.023 40.923,304.629 40.895,303.667 40.895 C 302.704 40.895,302.310 40.923,302.792 40.956 M314.883 40.958 C 315.690 40.988,316.965 40.988,317.717 40.957 C 318.468 40.926,317.808 40.901,316.250 40.902 C 314.692 40.902,314.077 40.927,314.883 40.958 M344.800 40.957 C 345.560 40.988,346.760 40.988,347.466 40.957 C 348.172 40.926,347.550 40.901,346.083 40.901 C 344.617 40.901,344.039 40.927,344.800 40.957 M183.167 42.917 C 182.484 43.604,181.963 44.167,182.008 44.167 C 182.054 44.167,182.650 43.604,183.333 42.917 C 184.016 42.229,184.537 41.667,184.492 41.667 C 184.446 41.667,183.850 42.229,183.167 42.917 M264.727 43.167 C 264.727 44.038,264.755 44.394,264.789 43.958 C 264.824 43.523,264.824 42.810,264.789 42.375 C 264.755 41.940,264.727 42.296,264.727 43.167 M294.060 43.167 C 294.060 44.038,294.088 44.394,294.123 43.958 C 294.157 43.523,294.157 42.810,294.123 42.375 C 294.088 41.940,294.060 42.296,294.060 43.167 M300.913 57.083 C 300.913 65.425,300.934 68.813,300.958 64.612 C 300.983 60.412,300.983 53.587,300.958 49.446 C 300.933 45.305,300.913 48.742,300.913 57.083 M321.417 43.167 C 322.053 43.808,322.612 44.333,322.658 44.333 C 322.704 44.333,322.220 43.808,321.583 43.167 C 320.947 42.525,320.388 42.000,320.342 42.000 C 320.296 42.000,320.780 42.525,321.417 43.167 M347.497 43.625 L 345.917 45.250 347.542 43.670 C 348.435 42.801,349.167 42.070,349.167 42.045 C 349.167 41.924,348.964 42.116,347.497 43.625 M274.909 43.208 L 274.250 43.917 274.958 43.258 C 275.348 42.895,275.667 42.577,275.667 42.550 C 275.667 42.423,275.522 42.550,274.909 43.208 M231.583 43.667 C 232.035 44.125,232.442 44.500,232.487 44.500 C 232.533 44.500,232.201 44.125,231.750 43.667 C 231.299 43.208,230.892 42.833,230.846 42.833 C 230.800 42.833,231.132 43.208,231.583 43.667 M339.746 44.208 L 338.417 45.583 339.792 44.254 C 340.548 43.523,341.167 42.904,341.167 42.879 C 341.167 42.757,340.981 42.931,339.746 44.208 M239.542 44.250 C 239.544 44.617,239.578 44.747,239.618 44.540 C 239.658 44.332,239.656 44.032,239.615 43.873 C 239.573 43.714,239.540 43.883,239.542 44.250 M156.667 46.417 C 157.718 47.471,158.615 48.333,158.661 48.333 C 158.707 48.333,157.885 47.471,156.833 46.417 C 155.782 45.362,154.885 44.500,154.839 44.500 C 154.793 44.500,155.615 45.362,156.667 46.417 M316.833 45.917 C 317.608 46.696,318.280 47.333,318.326 47.333 C 318.372 47.333,317.775 46.696,317.000 45.917 C 316.225 45.137,315.553 44.500,315.507 44.500 C 315.462 44.500,316.058 45.137,316.833 45.917 M163.917 46.167 C 164.646 46.900,165.280 47.500,165.326 47.500 C 165.371 47.500,164.812 46.900,164.083 46.167 C 163.354 45.433,162.720 44.833,162.674 44.833 C 162.629 44.833,163.188 45.433,163.917 46.167 M323.917 45.833 C 324.461 46.383,324.944 46.833,324.990 46.833 C 325.035 46.833,324.628 46.383,324.083 45.833 C 323.539 45.283,323.056 44.833,323.010 44.833 C 322.965 44.833,323.372 45.283,323.917 45.833 M206.976 45.376 C 207.046 45.446,211.111 45.484,216.010 45.460 L 224.917 45.417 215.883 45.333 C 210.915 45.287,206.907 45.307,206.976 45.376 M240.146 45.380 C 240.217 45.451,241.395 45.488,242.763 45.462 L 245.250 45.416 242.633 45.333 C 241.193 45.287,240.074 45.308,240.146 45.380 M253.958 45.458 C 255.815 45.485,258.852 45.485,260.708 45.458 C 262.565 45.431,261.046 45.409,257.333 45.409 C 253.621 45.409,252.102 45.431,253.958 45.458 M285.969 45.458 C 287.372 45.486,289.622 45.486,290.969 45.458 C 292.315 45.430,291.167 45.407,288.417 45.407 C 285.667 45.407,284.565 45.430,285.969 45.458 M245.500 55.133 L 245.583 64.750 245.626 55.260 C 245.650 50.040,245.613 45.713,245.543 45.643 C 245.474 45.573,245.454 49.844,245.500 55.133 M250.411 54.833 C 250.411 59.921,250.432 62.002,250.458 59.458 C 250.484 56.915,250.484 52.752,250.458 50.208 C 250.432 47.665,250.411 49.746,250.411 54.833 M337.411 46.708 L 336.417 47.750 337.458 46.755 C 338.426 45.831,338.576 45.667,338.453 45.667 C 338.427 45.667,337.959 46.135,337.411 46.708 M177.914 48.375 L 176.083 50.250 177.958 48.420 C 178.990 47.413,179.833 46.569,179.833 46.545 C 179.833 46.424,179.614 46.633,177.914 48.375 M343.000 48.250 C 342.317 48.938,341.796 49.500,341.842 49.500 C 341.888 49.500,342.484 48.938,343.167 48.250 C 343.850 47.563,344.371 47.000,344.325 47.000 C 344.279 47.000,343.683 47.563,343.000 48.250 M335.077 49.208 L 334.250 50.083 335.125 49.256 C 335.606 48.801,336.000 48.408,336.000 48.381 C 336.000 48.257,335.846 48.395,335.077 49.208 M168.497 50.875 C 170.120 52.539,170.333 52.742,170.333 52.622 C 170.333 52.597,169.527 51.791,168.542 50.830 L 166.750 49.083 168.497 50.875 M322.083 51.333 C 323.180 52.433,324.116 53.333,324.161 53.333 C 324.207 53.333,323.347 52.433,322.250 51.333 C 321.153 50.233,320.218 49.333,320.172 49.333 C 320.126 49.333,320.986 50.233,322.083 51.333 M328.250 50.500 C 328.794 51.050,329.277 51.500,329.323 51.500 C 329.369 51.500,328.961 51.050,328.417 50.500 C 327.872 49.950,327.390 49.500,327.344 49.500 C 327.298 49.500,327.706 49.950,328.250 50.500 M162.667 52.583 C 164.085 54.004,165.283 55.167,165.329 55.167 C 165.375 55.167,164.252 54.004,162.833 52.583 C 161.415 51.163,160.217 50.000,160.171 50.000 C 160.125 50.000,161.248 51.163,162.667 52.583 M234.579 61.333 C 234.579 67.521,234.600 70.052,234.625 66.958 C 234.650 63.865,234.650 58.802,234.625 55.708 C 234.600 52.615,234.579 55.146,234.579 61.333 M332.744 51.708 L 331.917 52.583 332.792 51.756 C 333.605 50.988,333.743 50.833,333.619 50.833 C 333.592 50.833,333.199 51.227,332.744 51.708 M330.326 52.708 C 331.017 53.444,331.167 53.577,331.167 53.451 C 331.167 53.425,330.810 53.068,330.375 52.660 L 329.583 51.917 330.326 52.708 M337.580 53.875 L 335.750 55.750 337.625 53.920 C 338.656 52.913,339.500 52.069,339.500 52.045 C 339.500 51.924,339.281 52.133,337.580 53.875 M215.113 54.125 C 217.696 54.151,221.971 54.151,224.613 54.125 C 227.255 54.099,225.142 54.078,219.917 54.078 C 214.692 54.078,212.530 54.099,215.113 54.125 M277.389 55.500 C 277.389 56.188,277.419 56.469,277.455 56.125 C 277.491 55.781,277.491 55.219,277.455 54.875 C 277.419 54.531,277.389 54.813,277.389 55.500 M173.417 56.000 C 174.238 56.825,174.947 57.500,174.993 57.500 C 175.039 57.500,174.405 56.825,173.583 56.000 C 172.762 55.175,172.053 54.500,172.007 54.500 C 171.961 54.500,172.595 55.175,173.417 56.000 M327.000 56.417 C 327.311 56.737,327.603 57.000,327.649 57.000 C 327.695 57.000,327.478 56.737,327.167 56.417 C 326.856 56.096,326.564 55.833,326.518 55.833 C 326.472 55.833,326.689 56.096,327.000 56.417 M204.833 56.750 C 204.428 57.163,204.135 57.500,204.181 57.500 C 204.226 57.500,204.595 57.163,205.000 56.750 C 205.405 56.337,205.699 56.000,205.653 56.000 C 205.607 56.000,205.238 56.337,204.833 56.750 M168.083 58.167 C 168.812 58.900,169.446 59.500,169.492 59.500 C 169.538 59.500,168.979 58.900,168.250 58.167 C 167.521 57.433,166.887 56.833,166.841 56.833 C 166.795 56.833,167.354 57.433,168.083 58.167 M326.909 57.875 L 326.250 58.583 326.958 57.925 C 327.348 57.562,327.667 57.243,327.667 57.216 C 327.667 57.090,327.522 57.216,326.909 57.875 M277.395 59.167 C 277.395 60.129,277.423 60.523,277.456 60.042 C 277.490 59.560,277.490 58.773,277.456 58.292 C 277.423 57.810,277.395 58.204,277.395 59.167 M337.917 60.667 C 338.738 61.492,339.447 62.167,339.493 62.167 C 339.539 62.167,338.905 61.492,338.083 60.667 C 337.262 59.842,336.553 59.167,336.507 59.167 C 336.461 59.167,337.095 59.842,337.917 60.667 M324.000 60.917 C 323.317 61.604,322.796 62.167,322.842 62.167 C 322.888 62.167,323.484 61.604,324.167 60.917 C 324.850 60.229,325.371 59.667,325.325 59.667 C 325.279 59.667,324.683 60.229,324.000 60.917 M171.833 62.083 C 172.608 62.862,173.280 63.500,173.326 63.500 C 173.372 63.500,172.775 62.862,172.000 62.083 C 171.225 61.304,170.553 60.667,170.507 60.667 C 170.462 60.667,171.058 61.304,171.833 62.083 M330.329 61.458 L 329.588 62.250 330.332 61.543 L 331.077 60.835 332.247 61.959 L 333.417 63.083 332.254 61.875 C 331.615 61.210,331.087 60.667,331.081 60.667 C 331.075 60.667,330.736 61.023,330.329 61.458 M195.550 62.500 C 195.550 63.004,195.581 63.210,195.619 62.958 C 195.658 62.706,195.658 62.294,195.619 62.042 C 195.581 61.790,195.550 61.996,195.550 62.500 M277.372 62.500 C 277.372 62.821,277.406 62.952,277.448 62.792 C 277.490 62.631,277.490 62.369,277.448 62.208 C 277.406 62.048,277.372 62.179,277.372 62.500 M207.375 62.750 C 207.377 63.117,207.411 63.247,207.451 63.040 C 207.491 62.832,207.490 62.532,207.448 62.373 C 207.406 62.214,207.374 62.383,207.375 62.750 M342.333 65.250 C 343.385 66.304,344.282 67.167,344.328 67.167 C 344.374 67.167,343.551 66.304,342.500 65.250 C 341.449 64.196,340.551 63.333,340.505 63.333 C 340.460 63.333,341.282 64.196,342.333 65.250 M319.165 65.958 L 316.750 68.417 319.208 66.002 C 321.492 63.759,321.742 63.500,321.623 63.500 C 321.599 63.500,320.492 64.606,319.165 65.958 M327.494 64.458 L 326.583 65.417 327.542 64.506 C 328.069 64.005,328.500 63.573,328.500 63.547 C 328.500 63.424,328.341 63.568,327.494 64.458 M195.542 64.750 C 195.544 65.117,195.578 65.247,195.618 65.040 C 195.658 64.832,195.656 64.532,195.615 64.373 C 195.573 64.214,195.540 64.383,195.542 64.750 M334.833 64.719 C 334.833 64.748,335.077 64.991,335.375 65.260 L 335.917 65.750 335.427 65.208 C 334.971 64.703,334.833 64.590,334.833 64.719 M325.077 67.042 L 324.250 67.917 325.125 67.090 C 325.606 66.635,326.000 66.241,326.000 66.215 C 326.000 66.090,325.846 66.229,325.077 67.042 M338.500 68.583 C 339.091 69.179,339.611 69.667,339.657 69.667 C 339.703 69.667,339.257 69.179,338.667 68.583 C 338.076 67.987,337.555 67.500,337.510 67.500 C 337.464 67.500,337.909 67.987,338.500 68.583 M252.167 67.748 C 252.167 67.862,253.187 68.368,253.263 68.292 C 253.300 68.256,253.068 68.102,252.748 67.949 C 252.428 67.797,252.167 67.706,252.167 67.748 M246.333 67.897 C 246.333 68.076,246.829 69.000,246.925 69.000 C 246.971 69.000,246.885 68.756,246.733 68.458 C 246.424 67.850,246.333 67.723,246.333 67.897 M229.568 68.498 C 229.466 68.601,226.624 68.680,222.077 68.708 L 214.750 68.754 222.105 68.793 C 228.472 68.828,229.487 68.800,229.667 68.583 C 229.898 68.304,229.825 68.241,229.568 68.498 M322.413 69.875 L 321.083 71.250 322.458 69.921 C 323.215 69.189,323.833 68.571,323.833 68.546 C 323.833 68.424,323.647 68.598,322.413 69.875 M211.463 68.789 C 211.855 68.824,212.455 68.824,212.796 68.788 C 213.137 68.752,212.817 68.723,212.083 68.724 C 211.350 68.724,211.071 68.754,211.463 68.789 M257.375 68.791 C 258.635 68.820,260.698 68.820,261.958 68.791 C 263.219 68.763,262.188 68.740,259.667 68.740 C 257.146 68.740,256.115 68.763,257.375 68.791 M347.333 70.417 C 348.201 71.287,348.948 72.000,348.993 72.000 C 349.039 72.000,348.367 71.287,347.500 70.417 C 346.633 69.546,345.886 68.833,345.840 68.833 C 345.794 68.833,346.466 69.546,347.333 70.417 M314.079 71.208 L 312.917 72.417 314.125 71.254 C 315.247 70.175,315.409 70.000,315.287 70.000 C 315.262 70.000,314.718 70.544,314.079 71.208 M204.993 70.875 C 205.684 71.611,205.833 71.743,205.833 71.618 C 205.833 71.591,205.477 71.235,205.042 70.826 L 204.250 70.083 204.993 70.875 M265.379 71.500 C 265.379 71.912,265.411 72.081,265.451 71.875 C 265.491 71.669,265.491 71.331,265.451 71.125 C 265.411 70.919,265.379 71.087,265.379 71.500 M341.934 72.125 C 342.500 72.698,343.065 73.164,343.190 73.162 C 343.320 73.159,343.275 73.079,343.083 72.974 C 342.900 72.874,342.335 72.407,341.828 71.937 C 340.966 71.140,340.974 71.152,341.934 72.125 M195.048 72.783 C 194.845 72.994,194.739 73.167,194.813 73.167 C 194.976 73.167,195.582 72.519,195.485 72.449 C 195.447 72.422,195.251 72.572,195.048 72.783 M276.881 72.783 C 276.678 72.994,276.573 73.167,276.647 73.167 C 276.809 73.167,277.416 72.519,277.318 72.449 C 277.281 72.422,277.084 72.572,276.881 72.783 M142.631 73.290 C 143.115 73.324,143.865 73.323,144.297 73.289 C 144.730 73.255,144.333 73.227,143.417 73.228 C 142.500 73.228,142.146 73.256,142.631 73.290 M192.131 73.290 C 192.615 73.324,193.365 73.323,193.797 73.289 C 194.230 73.255,193.833 73.227,192.917 73.228 C 192.000 73.228,191.646 73.256,192.131 73.290 M215.887 73.292 C 219.171 73.317,224.496 73.317,227.721 73.292 C 230.945 73.266,228.258 73.246,221.750 73.246 C 215.242 73.246,212.603 73.266,215.887 73.292 M256.635 73.291 C 258.131 73.319,260.531 73.319,261.969 73.291 C 263.407 73.264,262.183 73.241,259.250 73.241 C 256.317 73.241,255.140 73.264,256.635 73.291 M274.042 73.289 C 274.477 73.324,275.190 73.324,275.625 73.289 C 276.060 73.255,275.704 73.227,274.833 73.227 C 273.962 73.227,273.606 73.255,274.042 73.289 M303.049 73.290 C 303.671 73.323,304.646 73.322,305.215 73.290 C 305.784 73.257,305.275 73.231,304.083 73.231 C 302.892 73.232,302.426 73.258,303.049 73.290 M314.883 73.291 C 315.597 73.322,316.722 73.322,317.383 73.290 C 318.043 73.259,317.458 73.233,316.083 73.233 C 314.708 73.234,314.168 73.259,314.883 73.291 M344.883 73.291 C 345.597 73.322,346.722 73.322,347.383 73.290 C 348.043 73.259,347.458 73.233,346.083 73.233 C 344.708 73.234,344.168 73.259,344.883 73.291 " stroke="none" fill="#94a0b5" fill-rule="evenodd"></path><path id="path3" d="M61.167 22.491 C 59.562 23.345,59.500 23.633,59.502 30.233 C 59.504 37.685,59.338 37.204,63.215 40.957 C 68.566 46.137,69.500 47.110,69.500 47.502 C 69.500 47.759,68.825 48.568,67.360 50.064 C 60.817 56.747,60.675 56.902,60.125 57.996 L 59.583 59.076 59.583 65.426 L 59.583 71.776 60.064 72.406 C 60.826 73.405,61.588 73.659,63.833 73.662 C 66.544 73.666,66.829 73.559,68.421 71.942 C 70.851 69.474,78.994 60.970,85.116 54.507 L 86.149 53.417 88.959 53.361 C 91.037 53.321,91.901 53.364,92.275 53.528 C 92.923 53.812,101.510 62.772,108.148 70.090 C 111.430 73.708,111.429 73.707,114.250 73.637 C 118.361 73.535,118.361 73.537,118.297 65.250 L 118.250 59.083 117.733 57.993 C 117.309 57.098,116.474 56.104,113.067 52.437 C 110.372 49.537,108.898 47.826,108.863 47.557 C 108.818 47.212,109.517 46.427,113.121 42.780 C 116.243 39.620,117.545 38.187,117.841 37.583 L 118.250 36.750 118.250 30.417 L 118.250 24.083 117.849 23.439 C 116.837 21.810,112.301 21.555,110.580 23.031 C 109.552 23.913,104.066 29.576,95.437 38.665 C 94.348 39.812,93.226 40.956,92.943 41.208 L 92.429 41.667 89.181 41.667 L 85.932 41.667 84.005 39.708 C 82.946 38.631,81.253 36.887,80.243 35.833 C 72.387 27.630,67.589 22.825,66.940 22.512 C 65.938 22.026,62.068 22.013,61.167 22.491 M65.477 26.905 C 65.920 27.134,78.242 39.674,82.093 43.815 C 83.337 45.153,84.045 45.492,85.607 45.496 C 87.032 45.501,87.000 45.453,87.000 47.591 C 87.000 49.403,86.924 49.500,85.504 49.500 C 84.238 49.500,83.635 49.911,81.426 52.281 C 75.140 59.024,65.399 69.020,65.014 69.122 C 63.726 69.463,63.666 69.256,63.671 64.510 C 63.677 59.345,63.170 60.291,69.205 54.169 C 76.327 46.944,76.366 48.008,68.705 40.501 L 63.750 35.646 63.700 31.470 C 63.641 26.495,63.816 26.046,65.477 26.905 M113.905 26.929 C 114.214 27.238,114.296 34.469,114.001 35.496 C 113.877 35.928,112.684 37.228,109.260 40.662 C 102.296 47.646,102.315 47.268,108.591 53.874 C 113.750 59.304,113.825 59.389,114.007 60.025 C 114.250 60.873,114.215 68.719,113.967 68.967 C 113.474 69.459,113.032 69.172,111.121 67.125 C 106.313 61.972,100.646 55.856,99.604 54.694 C 98.166 53.091,95.379 50.229,94.853 49.813 C 94.546 49.572,94.177 49.500,93.238 49.500 C 91.196 49.500,91.167 49.472,91.167 47.537 C 91.167 45.527,91.189 45.500,92.872 45.500 C 94.996 45.500,95.147 45.366,105.083 34.663 C 112.311 26.878,113.133 26.157,113.905 26.929 M301.246 28.720 C 300.453 29.085,300.333 29.567,300.333 32.410 L 300.333 34.970 300.859 35.413 L 301.385 35.856 304.041 35.803 C 307.524 35.734,307.333 35.939,307.333 32.241 C 307.333 28.548,307.450 28.683,304.167 28.571 C 302.313 28.508,301.633 28.542,301.246 28.720 " stroke="none" fill="#1a42d4" fill-rule="evenodd"></path></g></svg>
